<?xml version="1.0" encoding="UTF-8"?>
<svg width="28px" height="58px" viewBox="0 0 28 58" version="1.1" xmlns="http://www.w3.org/2000/svg" xmlns:xlink="http://www.w3.org/1999/xlink">
    <!-- Generator: Sketch 45.2 (43514) - http://www.bohemiancoding.com/sketch -->
    <title>Group 4</title>
    <desc>Created with Sketch.</desc>
    <defs></defs>
    <g id="Designs" stroke="none" stroke-width="1" fill="none" fill-rule="evenodd">
        <g id="About-Us-2" transform="translate(-136.000000, -3156.000000)" fill="#22212A">
            <g id="Group-4" transform="translate(136.000000, 3156.000000)">
                <g id="budicon-lightbulb" transform="translate(0.000000, 14.117647)">
                    <g id="lightbulb">
                        <g id="budicon-lightbulb_2_">
                            <path d="M14.0035294,2.53294118 C13.1141176,2.53470588 12.2264706,2.62647059 11.3564706,2.81176471 C16.6417647,3.87764706 20.3758824,8.61588235 20.18,14.0035294 C20.18,17.4235294 18.2882353,20.4905882 16.4564706,23.4552941 C14.8647059,25.6364706 13.7494118,28.1264706 13.1829412,30.7682353 L18.4770588,30.7682353 C19.0417647,28.1282353 20.1570588,25.6364706 21.7505882,23.4552941 C23.5805882,20.4888235 25.4741176,17.4217647 25.4741176,14.0035294 C25.6858824,7.88 20.8929412,2.74470588 14.7711765,2.53294118 C14.5152941,2.52411765 14.2594118,2.52411765 14.0035294,2.53294118 L14.0035294,2.53294118 Z" id="Shape" opacity="0.200000003"></path>
                            <path d="M19.2976471,34.2976471 L8.70941176,34.2976471 C8.22235294,34.2976471 7.82705882,34.6929412 7.82705882,35.18 C7.82705882,35.6670588 8.22235294,36.0623529 8.70941176,36.0623529 L19.2976471,36.0623529 C19.7847059,36.0623529 20.18,35.6670588 20.18,35.18 C20.18,34.6929412 19.7847059,34.2976471 19.2976471,34.2976471 L19.2976471,34.2976471 Z" id="Shape"></path>
                            <path d="M19.2976471,37.8270588 L8.70941176,37.8270588 C8.22235294,37.8270588 7.82705882,38.2223529 7.82705882,38.7094118 C7.82705882,39.1964706 8.22235294,39.5917647 8.70941176,39.5917647 L9.68,39.5917647 C10.1652941,41.9794118 12.4929412,43.5217647 14.8823529,43.0382353 C16.6188235,42.6852941 17.9758824,41.3282353 18.3288235,39.5917647 L19.2994118,39.5917647 C19.7864706,39.5917647 20.1817647,39.1964706 20.1817647,38.7094118 C20.18,38.2223529 19.7847059,37.8270588 19.2976471,37.8270588 L19.2976471,37.8270588 Z" id="Shape"></path>
                            <path d="M14.0035294,0.768235294 C6.85647059,0.605882353 0.930588235,6.26882353 0.768235294,13.4158824 C0.762941176,13.6117647 0.762941176,13.8076471 0.768235294,14.0035294 C0.768235294,17.9229412 2.88588235,21.3552941 4.75470588,24.3835294 C6.33588235,26.9441176 7.82705882,29.3652941 7.82705882,31.6505882 C7.82705882,32.1376471 8.22235294,32.5329412 8.70941176,32.5329412 L19.2976471,32.5329412 C19.7847059,32.5329412 20.18,32.1376471 20.18,31.6505882 C20.18,29.3652941 21.6729412,26.9441176 23.2523529,24.3835294 C25.1211765,21.3552941 27.2388235,17.9229412 27.2388235,14.0035294 C27.4011765,6.85647059 21.7382353,0.930588235 14.5911765,0.768235294 C14.3952941,0.762941176 14.1994118,0.762941176 14.0035294,0.768235294 L14.0035294,0.768235294 Z M21.7505882,23.4552941 C20.1588235,25.6364706 19.0435294,28.1264706 18.4770588,30.7682353 L9.53,30.7682353 C8.96529412,28.1282353 7.84823529,25.6364706 6.25647059,23.4552941 C4.42470588,20.4888235 2.53294118,17.4217647 2.53294118,14.0035294 C2.32117647,7.88 7.11411765,2.74470588 13.2358824,2.53294118 C13.4917647,2.52411765 13.7476471,2.52411765 14.0035294,2.53294118 C20.1270588,2.32117647 25.2623529,7.11411765 25.4741176,13.2358824 C25.4829412,13.4917647 25.4829412,13.7476471 25.4741176,14.0035294 C25.4741176,17.4217647 23.5823529,20.4905882 21.7505882,23.4552941 L21.7505882,23.4552941 Z" id="Shape"></path>
                        </g>
                    </g>
                </g>
                <g id="Group" transform="translate(14.029412, 5.088235) scale(1, -1) translate(-14.029412, -5.088235) translate(2.529412, 0.588235)">
                    <path d="M11.4705882,3.52941176 C10.9835294,3.52941176 10.5882353,3.92470588 10.5882353,4.41176471 L10.5882353,7.94117647 C10.5882353,8.42823529 10.9835294,8.82352941 11.4705882,8.82352941 C11.9576471,8.82352941 12.3529412,8.42823529 12.3529412,7.94117647 L12.3529412,4.41176471 C12.3529412,3.92470588 11.9576471,3.52941176 11.4705882,3.52941176 L11.4705882,3.52941176 Z" id="Shape"></path>
                    <path d="M19.5811765,0.686470588 C19.2405882,0.337058824 18.6829412,0.33 18.3335294,0.670588235 C17.9841176,1.01117647 17.9770588,1.56882353 18.3176471,1.91823529 C18.3229412,1.92352941 18.3282353,1.92882353 18.3335294,1.93411765 L20.8288235,4.42941176 C21.1729412,4.77352941 21.7323529,4.77352941 22.0764706,4.42941176 C22.4205882,4.08529412 22.4205882,3.52588235 22.0764706,3.18176471 L19.5811765,0.686470588 L19.5811765,0.686470588 Z" id="Shape"></path>
                    <path d="M3.36,0.686470588 L0.864705882,3.18176471 C0.520588235,3.52588235 0.520588235,4.08529412 0.864705882,4.42941176 C1.20882353,4.77352941 1.76823529,4.77352941 2.11235294,4.42941176 L4.60764706,1.93411765 C4.94823529,1.58470588 4.94117647,1.02705882 4.59176471,0.686470588 C4.24941176,0.352941176 3.70235294,0.352941176 3.36,0.686470588 L3.36,0.686470588 L3.36,0.686470588 Z" id="Shape"></path>
                </g>
            </g>
        </g>
    </g>
</svg>