<?xml version="1.0" encoding="UTF-8"?>
<svg width="47px" height="47px" viewBox="0 0 47 47" version="1.1" xmlns="http://www.w3.org/2000/svg" xmlns:xlink="http://www.w3.org/1999/xlink">
    <!-- Generator: Sketch 45.2 (43514) - http://www.bohemiancoding.com/sketch -->
    <title>budicon-stickers</title>
    <desc>Created with Sketch.</desc>
    <defs></defs>
    <g id="Designs" stroke="none" stroke-width="1" fill="none" fill-rule="evenodd">
        <g id="About-Us-2" transform="translate(-541.000000, -3167.000000)" fill="#22212A">
            <g id="budicon-stickers" transform="translate(541.000000, 3167.000000)">
                <g id="Group">
                    <path d="M9.01292308,6.35261538 C6.19938462,9.95446154 4.50646154,14.4701538 4.50646154,19.3846154 C4.50646154,31.0910769 14.0307692,40.6153846 25.7372308,40.6153846 C30.6516923,40.6153846 35.1673846,38.9224615 38.7692308,36.1089231 C34.8812308,41.088 28.8369231,44.3076923 22.0449231,44.3076923 C10.3384615,44.3076923 0.814153846,34.7833846 0.814153846,23.0769231 C0.814153846,16.2830769 4.03384615,10.2406154 9.01292308,6.35261538 L9.01292308,6.35261538 Z" id="Shape" opacity="0.200000003"></path>
                    <g>
                        <path d="M46.1538462,23.0806154 C46.1538462,10.3347692 35.8227692,0.00369230769 23.0769231,0.00369230769 C10.3310769,0.00369230769 0,10.3347692 0,23.0806154 C0,35.8264615 10.3310769,46.1575385 23.0769231,46.1575385 C25.1261538,46.1575385 27.1126154,45.8898462 29.0049231,45.3895385 L35.904,37.5692308 L45.9470769,26.1821538 L45.9489231,26.1803077 C46.0836923,25.1667692 46.1538462,24.1310769 46.1538462,23.0806154 L46.1538462,23.0806154 Z M29.16,42.4209231 C28.2036923,40.7556923 27.6923077,38.8633846 27.6923077,36.9267692 C27.6923077,30.8196923 32.6621538,25.8498462 38.7692308,25.8498462 C40.2443077,25.8498462 41.6861538,26.1396923 43.0283077,26.6990769 L29.16,42.4209231 L29.16,42.4209231 Z M38.7692308,24.0036923 C31.632,24.0036923 25.8461538,29.7895385 25.8461538,36.9267692 C25.8461538,39.4449231 26.5772308,41.784 27.8252308,43.7686154 C26.2744615,44.1230769 24.6812308,44.3113846 23.0769231,44.3113846 C11.3704615,44.3113846 1.84615385,34.7870769 1.84615385,23.0806154 C1.84615385,11.3741538 11.3704615,1.84984615 23.0769231,1.84984615 C34.7833846,1.84984615 44.3076923,11.3741538 44.3076923,23.0806154 C44.3076923,23.7913846 44.2633846,24.5021538 44.1932308,25.2073846 C42.5427692,24.4412308 40.7095385,24.0036923 38.7692308,24.0036923 L38.7692308,24.0036923 Z" id="Shape"></path>
                        <circle id="Oval" cx="12.9230769" cy="16.6190769" r="1.84615385"></circle>
                        <circle id="Oval" cx="24" cy="16.6190769" r="1.84615385"></circle>
                        <path d="M22.1538462,27.696 C24.1938462,27.696 25.8461538,26.0418462 25.8461538,24.0036923 L18.4615385,24.0036923 C18.4615385,26.0418462 20.1138462,27.696 22.1538462,27.696 L22.1538462,27.696 Z" id="Shape"></path>
                    </g>
                    <path d="M29.16,42.4209231 C28.2036923,40.7556923 27.6923077,38.8633846 27.6923077,36.9267692 C27.6923077,30.8196923 32.6621538,25.8498462 38.7692308,25.8498462 C40.2443077,25.8498462 41.6861538,26.1396923 43.0283077,26.6990769 L29.16,42.4209231 L29.16,42.4209231 Z" id="Shape" opacity="0.200000003"></path>
                </g>
            </g>
        </g>
    </g>
</svg>