<?xml version="1.0" encoding="UTF-8"?>
<svg width="35px" height="48px" viewBox="0 0 35 48" version="1.1" xmlns="http://www.w3.org/2000/svg" xmlns:xlink="http://www.w3.org/1999/xlink">
    <!-- Generator: Sketch 45.2 (43514) - http://www.bohemiancoding.com/sketch -->
    <title>Logo_BG</title>
    <desc>Created with Sketch.</desc>
    <defs></defs>
    <g id="Designs" stroke="none" stroke-width="1" fill="none" fill-rule="evenodd">
        <g id="About-Us-2" transform="translate(-135.000000, -2791.000000)">
            <g id="Logo_BG" transform="translate(135.000000, 2791.000000)">
                <path d="M28.0140658,13.9603952 C26.7178468,16.3057855 25.131297,19.1684537 23.3148951,22.4402335 L23.2699217,22.5212404 C21.4154972,25.8614251 19.4286517,29.4350987 17.4418115,33.0054113 C16.7464216,34.2550133 16.1007011,35.4149414 15.521205,36.4555863 C15.1983387,37.0353517 15.1983387,37.0353517 14.9830874,37.421805 C14.8257823,37.7041998 14.8257823,37.7041998 14.7926476,37.7636724 L14.6999484,37.9016653 C13.8632246,38.94757 12.8480338,39.485024 11.7330777,39.485024 C10.3934659,39.485024 9.35971308,38.9151346 7.80328341,37.6910687 C7.70961611,37.6107824 7.61482813,37.5268379 7.50839281,37.4302634 C6.17742494,39.8373701 5.08339377,41.8248028 5.04342227,41.9042974 C4.28691922,43.5022 4.54736671,44.4397365 7.3873063,45.5527122 C9.7886057,46.5132319 12.2431834,46.9768744 14.7819751,46.9768744 C21.8904729,46.9768744 28.4891139,43.2193149 31.7973653,37.2536185 C35.8538912,29.9107931 34.2438566,20.5767848 28.0140658,13.9603952 Z" id="Fill-1" stroke="#22212A" stroke-width="2"></path>
                <path d="M7.01483073,34.1315886 C8.31023061,31.7876714 9.89859894,28.921666 11.7441552,25.597092 L11.7863469,25.5210889 C14.4574786,20.709433 20.2720497,10.2544826 20.272917,10.2527481 L20.3864754,10.0752666 C21.2231991,9.02936192 22.23839,8.49190796 23.3533461,8.49190796 C24.6929579,8.49190796 25.7267107,9.06179734 27.2831404,10.2858632 C27.3821059,10.3706908 27.4689206,10.4473465 27.578083,10.5465745 C28.9090287,8.13950708 30.0030419,6.1521041 30.0430886,6.07245057 C30.799588,4.47539631 30.5389668,3.53716006 27.6991175,2.42421974 C25.2978181,1.46369998 22.8432404,1.00005753 20.3044487,1.00005753 C13.1771758,1.00005753 6.58887024,4.77349812 3.23153215,10.8383662 C-0.824993595,18.1811913 0.785040633,27.5151991 7.01483073,34.1315886 Z" id="Fill-3" stroke="#22212A" stroke-width="2"></path>
                <path d="M11.7329051,38.4277277 C10.467325,38.4277277 9.20174497,37.5067306 8.45390221,36.8745158 C8.05121764,36.5293576 7.64853308,36.1841994 7.24584851,35.7815149 C12.1355896,26.9224545 21.1097028,10.8150719 21.1097028,10.8150719 C21.8000192,9.95217641 22.5478619,9.60701822 23.2957047,9.60701822 C24.5612848,9.60701822 25.8268648,10.5274401 26.5747076,11.1602301 C26.9773921,11.5053883 27.3800767,11.8505465 27.7827613,12.2532311 C22.8930201,21.1122915 13.918907,37.2190988 13.918907,37.2190988 C13.286117,38.0819942 12.4807478,38.4277277 11.7329051,38.4277277" id="Fill-5" fill="#BEBEBE" opacity="0.5"></path>
            </g>
        </g>
    </g>
</svg>