<?xml version="1.0" encoding="UTF-8"?>
<svg width="48px" height="48px" viewBox="0 0 48 48" version="1.1" xmlns="http://www.w3.org/2000/svg" xmlns:xlink="http://www.w3.org/1999/xlink">
    <!-- Generator: Sketch 45.2 (43514) - http://www.bohemiancoding.com/sketch -->
    <title>Group</title>
    <desc>Created with Sketch.</desc>
    <defs></defs>
    <g id="Designs" stroke="none" stroke-width="1" fill="none" fill-rule="evenodd">
        <g id="About-Us-2" transform="translate(-541.000000, -2791.000000)" fill="#22212A">
            <g id="budicon-lunar-flag" transform="translate(541.000000, 2791.000000)">
                <g id="Group">
                    <path d="M38.37888,48 L47.04192,48 C46.7904,35.75232 36.80256,25.89504 24.49344,25.89504 C23.0112,25.89504 21.56352,26.04672 20.16,26.32128 C30.4032,28.31232 38.15808,37.22688 38.37888,48 L38.37888,48 Z" id="Shape" opacity="0.200000003"></path>
                    <g>
                        <path d="M24,24.96 C20.208,24.96 16.63104,25.7952 13.44,27.24288 L13.44,19.2 L28.8,19.2 L28.8,20.16 C28.8,20.68992 29.23008,21.12 29.76,21.12 L43.2,21.12 C43.72992,21.12 44.16,20.68992 44.16,20.16 L44.16,2.88 C44.16,2.35008 43.72992,1.92 43.2,1.92 L30.72,1.92 L30.72,0.96 C30.72,0.43008 30.28992,0 29.76,0 L12.48,0 C11.95008,0 11.52,0.43008 11.52,0.96 L11.52,18.24 L11.52,28.21632 C4.62528,32.10048 0,39.07392 0,47.04 C0,47.56992 0.43008,48 0.96,48 C1.48992,48 1.92,47.56992 1.92,47.04 C1.92,40.15104 5.72928,34.06464 11.52,30.42624 L11.52,37.44 C11.52,37.96992 11.95008,38.4 12.48,38.4 C13.00992,38.4 13.44,37.96992 13.44,37.44 L13.44,29.34144 C16.5792,27.77472 20.17728,26.88 24,26.88 C36.17472,26.88 46.08,35.9232 46.08,47.04 C46.08,47.56992 46.51008,48 47.04,48 C47.56992,48 48,47.56992 48,47.04 C48,34.86528 37.23456,24.96 24,24.96 L24,24.96 Z M42.24,3.84 L42.24,19.2 L30.72,19.2 L30.72,18.24 L30.72,3.84 L42.24,3.84 L42.24,3.84 Z M28.8,2.88 L28.8,17.28 L13.44,17.28 L13.44,1.92 L28.8,1.92 L28.8,2.88 L28.8,2.88 Z" id="Shape"></path>
                        <path d="M24,30.72 C23.47008,30.72 23.04,31.15008 23.04,31.68 C23.04,32.20992 23.47008,32.64 24,32.64 C29.80224,32.64 35.21856,35.41632 38.13888,39.88416 C38.32128,40.1664 38.6304,40.32 38.94336,40.32 C39.12384,40.32 39.30432,40.27008 39.46752,40.16256 C39.91104,39.87264 40.03584,39.27936 39.74592,38.83392 C36.47616,33.8304 30.44352,30.72 24,30.72 L24,30.72 Z" id="Shape"></path>
                        <path d="M21.12,38.4 C18.9984,38.4 17.28,40.1184 17.28,42.24 C17.28,44.3616 18.9984,46.08 21.12,46.08 C23.2416,46.08 24.96,44.3616 24.96,42.24 C24.96,40.1184 23.2416,38.4 21.12,38.4 L21.12,38.4 Z M21.12,44.16 C20.06208,44.16 19.2,43.29792 19.2,42.24 C19.2,41.18208 20.06208,40.32 21.12,40.32 C22.17792,40.32 23.04,41.18208 23.04,42.24 C23.04,43.29792 22.17792,44.16 21.12,44.16 L21.12,44.16 Z" id="Shape"></path>
                        <circle id="Oval" cx="41.28" cy="43.2" r="1"></circle>
                    </g>
                    <polygon id="Shape" opacity="0.200000003" points="36.48 19.2 30.72 19.2 30.72 3.84 32.64 3.84"></polygon>
                    <polygon id="Shape" opacity="0.200000003" points="17.28 17.28 13.44 17.28 13.44 1.92 15.36 1.92"></polygon>
                </g>
            </g>
        </g>
    </g>
</svg>