<?xml version="1.0" encoding="UTF-8"?>
<svg width="54px" height="27px" viewBox="0 0 54 27" version="1.1" xmlns="http://www.w3.org/2000/svg" xmlns:xlink="http://www.w3.org/1999/xlink">
    <!-- Generator: Sketch 45.2 (43514) - http://www.bohemiancoding.com/sketch -->
    <title>budicon-watermelon</title>
    <desc>Created with Sketch.</desc>
    <defs></defs>
    <g id="Designs" stroke="none" stroke-width="1" fill="none" fill-rule="evenodd">
        <g id="About-Us-2" transform="translate(-945.000000, -2812.000000)" fill="#22212A">
            <g id="budicon-watermelon" transform="translate(943.000000, 2812.000000)">
                <g id="Group">
                    <path d="M35.6923077,2.23076923 C34.829,9.99384615 29.5086154,16.4184615 22.3612308,18.9303077 C24.4425385,19.662 26.6710769,20.0769231 29,20.0769231 C39.3262308,20.0769231 47.8566923,12.2558462 48.9720769,2.23076923 L35.6923077,2.23076923 L35.6923077,2.23076923 Z" id="Shape" opacity="0.200000003"></path>
                    <g id="Shape">
                        <path d="M29,15.6153846 C30.2336154,15.6153846 31.233,14.616 31.233,13.3846154 C31.233,12.1532308 29.2788462,6.69230769 29,6.69230769 C28.7211538,6.69230769 26.767,12.1532308 26.767,13.3846154 C26.767,14.616 27.7663846,15.6153846 29,15.6153846 L29,15.6153846 Z"></path>
                        <path d="M21.3573846,10.5515385 C22.1604615,9.74846154 24.447,4.91438462 24.2663077,4.73146154 C24.0856154,4.55076923 19.2537692,6.83730769 18.4506923,7.64261538 C17.6476154,8.44569231 17.6476154,9.74846154 18.4506923,10.5515385 C19.2515385,11.3546154 20.5543077,11.3546154 21.3573846,10.5515385 L21.3573846,10.5515385 Z"></path>
                        <path d="M39.5515385,10.5515385 C40.3546154,9.74846154 40.3546154,8.44569231 39.5515385,7.64261538 C38.7484615,6.83953846 33.9166154,4.55076923 33.7359231,4.73146154 C33.5552308,4.91438462 35.8417692,9.74846154 36.6448462,10.5515385 C37.4456923,11.3546154 38.7484615,11.3546154 39.5515385,10.5515385 L39.5515385,10.5515385 Z"></path>
                        <path d="M54.6382308,0 L3.36176923,0 C2.73046154,0 2.204,0.526461538 2.23076923,1.15553846 C2.83753846,15.4034615 14.5892308,26.7692308 29,26.7692308 C43.4107692,26.7692308 55.1624615,15.4034615 55.7692308,1.15553846 C55.796,0.526461538 55.2695385,0 54.6382308,0 L54.6382308,0 Z M48.9720769,2.23076923 C47.8589231,12.2558462 39.3262308,20.0769231 29,20.0769231 C18.6737692,20.0769231 10.1433077,12.2558462 9.02792308,2.23076923 L48.9720769,2.23076923 L48.9720769,2.23076923 Z M29,24.5384615 C16.2087692,24.5384615 5.67284615,14.7208462 4.54184615,2.23076923 L6.786,2.23076923 C7.90584615,13.5028462 17.4223077,22.3076923 29,22.3076923 C40.5776923,22.3076923 50.0941538,13.5028462 51.214,2.23076923 L53.4581538,2.23076923 C52.3271538,14.7208462 41.7912308,24.5384615 29,24.5384615 L29,24.5384615 Z"></path>
                    </g>
                </g>
            </g>
        </g>
    </g>
</svg>